<svg width="40" height="30" viewBox="0 0 40 30" fill="none" xmlns="http://www.w3.org/2000/svg">
<path d="M34.4525 3.61487C31.0016 0.875498 25.5427 0.412077 25.3107 0.392395C24.9464 0.361978 24.6002 0.565954 24.4516 0.89518C24.4407 0.916651 24.3211 1.18683 24.1888 1.60731C26.4706 1.98663 29.2744 2.75244 31.8118 4.30731C32.2178 4.55602 32.3428 5.08386 32.0909 5.48644C31.9278 5.74768 31.6432 5.89082 31.3532 5.89082C31.1974 5.89082 31.0397 5.84966 30.8965 5.76199C26.5359 3.0924 21.0878 2.95821 20.0402 2.95821C18.9926 2.95821 13.5427 3.0924 9.18568 5.76199C8.77789 6.01249 8.24504 5.88724 7.9913 5.48644C7.73756 5.08386 7.86443 4.55781 8.27041 4.30731C10.8078 2.75423 13.6098 1.98663 15.8934 1.60731C15.7593 1.18504 15.6397 0.916651 15.6306 0.89518C15.4802 0.565954 15.1358 0.358399 14.7697 0.394184C14.5395 0.412077 9.08056 0.875497 5.58261 3.65423C3.7557 5.32004 0.103699 15.068 0.103699 23.4954C0.103699 23.6439 0.143572 23.7907 0.21788 23.9195C2.73894 28.2907 9.61522 29.4358 11.183 29.4859C11.192 29.4859 11.2011 29.4859 11.2101 29.4859C11.4874 29.4859 11.7484 29.3553 11.9115 29.1334L13.4974 26.9827C9.22193 25.8913 7.03797 24.0394 6.9111 23.9302C6.55225 23.6171 6.51781 23.0767 6.83498 22.7225C7.15215 22.3682 7.69769 22.3342 8.05655 22.6455C8.10911 22.6921 12.1308 26.0612 20.0402 26.0612C27.964 26.0612 31.9858 22.6777 32.0256 22.6437C32.3845 22.336 32.9319 22.3682 33.2472 22.7243C33.5626 23.0785 33.5281 23.6171 33.1711 23.9284C33.0442 24.0394 30.8603 25.8895 26.5848 26.9809L28.1707 29.1316C28.3338 29.3535 28.5948 29.4841 28.8721 29.4841C28.8811 29.4841 28.8902 29.4841 28.8992 29.4841C30.467 29.4358 37.3433 28.2907 39.8643 23.9177C39.9368 23.7889 39.9767 23.6439 39.9767 23.4954C39.9767 15.068 36.3247 5.32004 34.4525 3.61487ZM14.4054 20.0726C12.7307 20.0726 11.3714 18.5392 11.3714 16.6497C11.3714 14.7602 12.7289 13.2268 14.4054 13.2268C16.0819 13.2268 17.4394 14.7602 17.4394 16.6497C17.4394 18.5392 16.0819 20.0726 14.4054 20.0726ZM25.675 20.0726C24.0003 20.0726 22.641 18.5392 22.641 16.6497C22.641 14.7602 23.9985 13.2268 25.675 13.2268C27.3496 13.2268 28.7089 14.7602 28.7089 16.6497C28.7089 18.5392 27.3496 20.0726 25.675 20.0726Z" fill="white"/>
</svg>
