<svg width="31" height="30" viewBox="0 0 31 30" fill="none" xmlns="http://www.w3.org/2000/svg">
<path d="M8.38171 0.466797C3.75333 0.466797 0 4.08608 0 8.54916V21.4809C0 25.944 3.75333 29.5633 8.38171 29.5633H21.7924C26.4208 29.5633 30.1741 25.944 30.1741 21.4809V8.54916C30.1741 4.08608 26.4208 0.466797 21.7924 0.466797H8.38171ZM25.1451 3.69974C26.0705 3.69974 26.8215 4.42392 26.8215 5.31621C26.8215 6.20851 26.0705 6.93269 25.1451 6.93269C24.2198 6.93269 23.4688 6.20851 23.4688 5.31621C23.4688 4.42392 24.2198 3.69974 25.1451 3.69974ZM15.0871 6.93269C19.7155 6.93269 23.4688 10.552 23.4688 15.015C23.4688 19.4781 19.7155 23.0974 15.0871 23.0974C10.4587 23.0974 6.70537 19.4781 6.70537 15.015C6.70537 10.552 10.4587 6.93269 15.0871 6.93269ZM15.0871 10.1656C13.7533 10.1656 12.4741 10.6765 11.531 11.586C10.5879 12.4954 10.058 13.7289 10.058 15.015C10.058 16.3012 10.5879 17.5347 11.531 18.4441C12.4741 19.3535 13.7533 19.8645 15.0871 19.8645C16.4209 19.8645 17.7 19.3535 18.6431 18.4441C19.5863 17.5347 20.1161 16.3012 20.1161 15.015C20.1161 13.7289 19.5863 12.4954 18.6431 11.586C17.7 10.6765 16.4209 10.1656 15.0871 10.1656Z" fill="white"/>
</svg>
