<svg width="32" height="32" viewBox="0 0 32 32" fill="none" xmlns="http://www.w3.org/2000/svg">
<path d="M31.6493 20.2907V22.1337C31.6493 22.2395 31.5915 22.3335 31.5073 22.3747C30.9917 22.6216 29.2266 23.5269 28.4927 24.6674C26.6197 27.5804 25.1887 31.7455 21.9899 31.7455H8.64509C3.91539 31.7455 0.0826416 27.4481 0.0826416 22.1454V21.975C0.0826416 21.8338 0.18521 21.7192 0.311489 21.7192H7.75074C7.89802 21.7192 8.00586 21.8721 7.99275 22.0337C7.94011 22.5746 8.02957 23.1272 8.25842 23.6298C8.70034 24.6322 9.61578 25.2583 10.6049 25.2583H14.2877V22.0455H10.647C10.4602 22.0455 10.3497 21.8044 10.4576 21.634C10.497 21.5663 10.5418 21.4959 10.5891 21.4165C10.9337 20.8698 11.4256 20.0203 11.9149 19.0532C12.249 18.4007 12.5725 17.704 12.833 17.0044C12.8856 16.878 12.9276 16.7487 12.9697 16.6223C13.0408 16.3989 13.1145 16.1902 13.167 15.9815C13.2197 15.8051 13.2617 15.62 13.3038 15.4465C13.4275 14.8528 13.4801 14.2237 13.4801 13.5712C13.4801 13.3155 13.4696 13.048 13.4485 12.7923C13.438 12.513 13.4064 12.2338 13.3748 11.9545C13.3538 11.7076 13.3144 11.4636 13.2723 11.2079C13.2197 10.8346 13.146 10.4643 13.0618 10.0909L13.0329 9.94988C12.9697 9.69411 12.9171 9.45018 12.8435 9.19447C12.6357 8.39196 12.3963 7.61011 12.1438 6.87821C12.0517 6.58719 11.9465 6.30796 11.8412 6.02873C11.6861 5.60839 11.5282 5.22628 11.3835 4.86471C11.3099 4.70009 11.2467 4.55017 11.1836 4.39734C11.1126 4.2239 11.0389 4.05047 10.9653 3.88591C10.9127 3.75951 10.8521 3.64192 10.81 3.52433L10.3602 2.59549C10.2971 2.46909 10.4023 2.31917 10.5259 2.3574L13.3407 3.2098H13.3486C13.3538 3.2098 13.3565 3.21277 13.3591 3.21277L13.73 3.32738L14.1377 3.45676L14.2877 3.50374V1.63431C14.2877 0.731897 14.9348 0 15.7345 0C16.1343 0 16.4973 0.182244 16.7578 0.4791C17.0182 0.776014 17.1813 1.18164 17.1813 1.63431V4.40912L17.4812 4.50314C17.5048 4.512 17.5285 4.52374 17.5496 4.54136C17.6232 4.6031 17.7284 4.69419 17.8626 4.80594C17.9678 4.89995 18.0809 5.01462 18.2177 5.13221C18.4887 5.37614 18.8122 5.69067 19.1674 6.05225C19.262 6.14334 19.3541 6.23741 19.4383 6.33148C19.896 6.80766 20.409 7.36613 20.8983 7.98341C21.0351 8.15685 21.1692 8.3332 21.306 8.51836C21.4428 8.7065 21.5875 8.89166 21.7137 9.07688C21.8795 9.32378 22.0583 9.5795 22.2136 9.847C22.2872 9.9734 22.3714 10.1027 22.4424 10.2291C22.6423 10.5671 22.8186 10.917 22.9869 11.2667C23.058 11.4284 23.1316 11.6047 23.1947 11.7782C23.3815 12.2455 23.5288 12.7217 23.6235 13.1979C23.6524 13.3008 23.6735 13.4125 23.684 13.5124V13.536C23.7156 13.677 23.7261 13.8269 23.7366 13.9798C23.7787 14.4677 23.7577 14.9556 23.663 15.4465C23.6235 15.6553 23.5709 15.8522 23.5078 16.0609C23.4446 16.2608 23.3815 16.4694 23.3 16.6664C23.1422 17.0749 22.9553 17.4835 22.7344 17.8657C22.6634 18.0068 22.5792 18.1567 22.495 18.2978C22.4029 18.4476 22.3082 18.5887 22.2241 18.7269C22.1083 18.9033 21.9847 19.0884 21.8584 19.2531C21.7453 19.4265 21.6296 19.5999 21.5033 19.7528C21.327 19.985 21.1587 20.2054 20.9824 20.4171C20.8772 20.5552 20.7641 20.6963 20.6483 20.8227C20.5353 20.9638 20.4195 21.0902 20.3143 21.2078C20.1381 21.4047 19.9907 21.5575 19.8671 21.6839L19.5777 21.9808C19.5356 22.022 19.4804 22.0455 19.4225 22.0455H17.1813V25.2583H20.0012C20.6326 25.2583 21.2324 25.0084 21.7164 24.5498C21.8821 24.3882 22.6055 23.6886 23.4604 22.6334C23.4893 22.5981 23.5262 22.5716 23.5683 22.5599L31.3574 20.0438C31.5021 19.9967 31.6493 20.1202 31.6493 20.2907Z" fill="white"/>
</svg>
