<svg width="39" height="30" viewBox="0 0 39 30" fill="none" xmlns="http://www.w3.org/2000/svg">
<path d="M38.408 3.75307C37.0024 4.33729 35.4959 4.72955 33.912 4.9076C35.5286 4.00066 36.7707 2.56515 37.3531 0.856996C35.8435 1.69438 34.1646 2.30364 32.3847 2.63192C30.9583 1.20753 28.9258 0.320068 26.6763 0.320068C22.3557 0.320068 18.8522 3.59727 18.8522 7.64231C18.8522 8.21541 18.9236 8.77459 19.0573 9.31152C12.5555 9.0055 6.79372 6.08995 2.93368 1.65821C2.25914 2.7432 1.87581 4.00066 1.87581 5.34159C1.87581 7.88157 3.25461 10.1239 5.35549 11.4398C4.07178 11.4008 2.86533 11.0697 1.81044 10.5217C1.81044 10.5523 1.81044 10.5829 1.81044 10.6135C1.81044 14.1633 4.5086 17.1206 8.08337 17.7966C7.42963 17.9636 6.73726 18.0526 6.02409 18.0526C5.51892 18.0526 5.02862 18.0081 4.5502 17.9191C5.54864 20.8263 8.43698 22.9489 11.8572 23.0073C9.18284 24.9714 5.81014 26.1399 2.14325 26.1399C1.51031 26.1399 0.889257 26.1065 0.28009 26.037C3.73897 28.1179 7.85159 29.3281 12.2703 29.3281C26.6585 29.3281 34.5271 18.1694 34.5271 8.49361C34.5271 8.17646 34.5182 7.85653 34.5063 7.54494C36.0337 6.51282 37.359 5.22197 38.408 3.75307Z" fill="white"/>
</svg>
