<?xml version="1.0" standalone="no"?>
<!DOCTYPE svg PUBLIC "-//W3C//DTD SVG 20010904//EN"
 "http://www.w3.org/TR/2001/REC-SVG-20010904/DTD/svg10.dtd">
<svg version="1.0" xmlns="http://www.w3.org/2000/svg"
 width="1431.000000pt" height="1431.000000pt" viewBox="0 0 1431.000000 1431.000000"
 preserveAspectRatio="xMidYMid meet">
<metadata>
Created by potrace 1.14, written by Peter Selinger 2001-2017
</metadata>
<g transform="translate(0.000000,1431.000000) scale(0.100000,-0.100000)"
fill="#000000" stroke="none">
<path d="M6117 14304 c-1 -1 -90 -5 -197 -8 -107 -4 -213 -9 -235 -11 -22 -2
-78 -6 -125 -10 -47 -3 -101 -8 -120 -10 -19 -2 -57 -6 -85 -10 -27 -3 -70 -8
-95 -10 -121 -14 -315 -43 -475 -71 -77 -14 -153 -28 -170 -30 -16 -3 -57 -12
-90 -19 -33 -8 -75 -17 -94 -20 -19 -3 -37 -8 -41 -10 -6 -4 -20 -7 -87 -20
-120 -24 -477 -126 -708 -202 -542 -177 -755 -281 -1023 -496 -87 -70 -260
-244 -299 -300 l-28 -40 34 -26 c19 -14 73 -56 119 -93 47 -37 96 -75 109 -85
13 -10 113 -87 221 -171 108 -84 265 -206 347 -270 83 -64 155 -120 160 -124
6 -5 48 -38 95 -74 47 -37 99 -77 115 -90 17 -13 444 -345 950 -738 506 -394
951 -746 989 -783 79 -79 183 -211 232 -298 94 -165 124 -230 185 -400 35 -95
97 -322 114 -410 17 -93 41 -258 50 -335 14 -130 17 -187 20 -389 l3 -213 174
-251 c95 -138 209 -303 252 -367 44 -63 82 -117 85 -120 13 -11 51 -70 51 -79
0 -5 4 -11 8 -13 4 -1 42 -52 84 -113 41 -60 108 -157 148 -215 40 -58 107
-154 149 -215 60 -88 169 -244 301 -435 10 -13 229 -330 375 -540 115 -167
281 -407 297 -430 9 -14 48 -70 87 -125 39 -55 90 -129 115 -165 67 -96 154
-223 166 -240 12 -17 196 -283 262 -378 24 -34 72 -104 108 -156 36 -51 111
-160 168 -242 57 -82 153 -221 214 -309 61 -88 136 -196 167 -240 30 -44 71
-102 91 -130 42 -58 53 -75 47 -75 -2 0 -19 21 -37 48 -19 26 -37 49 -40 52
-3 3 -149 196 -325 430 -370 493 -468 624 -501 665 -35 45 -204 270 -244 325
-19 27 -114 154 -211 282 -213 282 -758 1004 -1148 1523 -157 209 -291 387
-298 395 -7 8 -41 53 -76 100 -157 212 -401 535 -407 540 -3 3 -17 21 -30 40
-14 19 -28 40 -33 45 -96 119 -238 320 -241 342 -2 15 -7 75 -11 133 -4 58 -8
121 -10 140 -2 19 -6 71 -10 115 -3 44 -8 91 -10 105 -3 14 -7 53 -10 88 -4
35 -8 72 -10 83 -2 11 -7 48 -10 82 -4 34 -8 64 -10 67 -1 3 -6 32 -9 65 -4
33 -9 67 -11 75 -5 17 -15 72 -20 110 -2 14 -15 75 -30 135 -15 61 -28 117
-30 125 -21 95 -102 289 -148 353 -29 42 -96 87 -129 87 -16 0 -49 14 -76 33
-26 18 -83 58 -127 89 -44 30 -179 124 -300 208 -121 84 -247 172 -280 195
-33 23 -98 68 -145 100 -191 133 -266 185 -280 195 -101 71 -324 226 -395 274
-49 33 -91 64 -93 68 -2 4 -10 8 -17 8 -7 0 -15 4 -17 8 -1 4 -52 42 -113 83
-60 42 -164 114 -230 160 -66 46 -146 102 -178 124 -76 52 -222 154 -322 224
-456 317 -751 521 -757 521 -7 0 -35 -58 -42 -85 -2 -5 -9 -23 -15 -40 -47
-112 -164 -427 -232 -625 -63 -182 -158 -470 -175 -530 -2 -8 -20 -69 -40
-135 -79 -266 -193 -712 -228 -895 -2 -14 -14 -70 -25 -125 -11 -55 -22 -113
-25 -130 -3 -16 -8 -41 -10 -55 -5 -24 -11 -66 -21 -135 -3 -16 -6 -39 -9 -50
-2 -11 -7 -45 -11 -75 -3 -30 -8 -66 -10 -80 -2 -14 -7 -52 -10 -85 -4 -33 -8
-71 -10 -85 -25 -174 -25 -622 0 -720 2 -8 7 -40 10 -70 4 -30 9 -58 11 -61 2
-3 6 -20 9 -38 5 -27 29 -133 39 -166 1 -5 8 -30 15 -55 52 -188 163 -435 278
-624 61 -98 199 -286 258 -351 21 -22 56 -65 78 -95 22 -30 43 -57 46 -60 3
-3 22 -25 41 -50 74 -97 262 -286 420 -423 221 -191 488 -382 775 -554 255
-153 451 -254 808 -417 141 -64 499 -203 710 -275 247 -84 404 -159 852 -409
345 -192 729 -433 1095 -686 118 -82 226 -157 240 -168 14 -11 95 -71 180
-135 134 -101 331 -252 395 -305 329 -270 526 -439 624 -538 101 -102 336
-352 442 -470 52 -58 99 -110 104 -116 6 -6 35 -39 65 -74 30 -34 60 -68 65
-74 15 -15 213 -252 252 -301 362 -451 588 -785 738 -1097 103 -214 144 -355
145 -499 l1 -67 92 -64 c406 -287 842 -439 1267 -441 182 -1 281 11 445 55 69
18 93 31 177 95 493 377 827 870 934 1380 23 110 27 154 28 308 0 99 -3 209
-8 245 -9 69 0 55 -151 241 -38 48 -101 126 -140 175 -38 49 -76 95 -82 104
-27 33 -243 311 -323 415 -46 61 -105 137 -130 170 -408 530 -840 1130 -1249
1737 -111 164 -201 301 -201 306 0 4 -8 17 -17 28 -10 11 -23 29 -30 40 -6 10
-56 91 -111 179 -83 132 -141 228 -262 435 -270 459 -500 981 -544 1230 -3 19
-8 46 -11 60 -3 14 -7 63 -10 110 -3 47 -7 105 -10 130 -13 133 -18 166 -22
172 -5 9 -4 232 1 268 2 14 7 50 11 80 19 156 89 405 175 620 185 463 492 976
932 1557 59 78 114 150 122 160 8 10 48 59 87 108 70 87 259 315 269 325 3 3
36 41 74 85 64 74 178 204 201 229 6 6 37 40 70 76 147 163 318 343 536 564
l237 240 -48 46 c-121 116 -342 302 -510 428 -63 48 -117 90 -120 93 -3 3 -63
47 -135 97 -71 51 -135 96 -141 101 -78 63 -568 366 -779 482 -33 18 -82 45
-110 61 -54 31 -511 258 -518 258 -3 0 -43 18 -89 39 -347 163 -879 354 -1308
471 -63 18 -122 33 -130 35 -8 2 -53 12 -100 24 -158 38 -214 50 -365 80 -165
32 -174 34 -325 56 -58 9 -116 18 -130 20 -125 19 -331 42 -466 50 -44 3 -92
7 -109 10 -56 8 -640 25 -648 19z"/>
<path d="M11345 10887 c-155 -156 -247 -255 -409 -437 -259 -292 -571 -706
-762 -1010 -224 -358 -388 -725 -459 -1023 -27 -117 -35 -162 -49 -307 -3 -25
-8 -71 -11 -102 -17 -148 -9 -373 20 -543 9 -49 18 -103 21 -120 15 -89 72
-307 110 -420 38 -114 87 -253 99 -280 7 -16 29 -68 48 -115 57 -139 191 -417
254 -530 11 -19 35 -62 53 -95 63 -114 194 -330 202 -333 4 -2 8 -8 8 -14 0
-17 261 -398 404 -588 76 -102 205 -265 285 -363 162 -197 209 -258 253 -332
16 -27 40 -66 54 -85 131 -191 169 -244 234 -333 41 -56 113 -154 159 -217 47
-63 87 -117 90 -120 3 -3 26 -32 51 -65 60 -80 442 -569 449 -575 4 -3 60 -72
126 -155 65 -82 127 -159 137 -169 10 -11 18 -25 18 -30 1 -35 99 150 154 292
80 205 153 464 202 717 2 11 6 31 9 45 3 14 7 43 11 65 3 22 7 47 9 55 2 8 7
35 10 60 3 25 10 70 15 100 5 30 12 80 15 110 4 30 8 66 10 80 2 14 6 54 10
90 3 36 8 81 10 100 42 356 54 1451 20 1800 -3 25 -7 88 -10 140 -10 160 -14
233 -20 292 -3 32 -8 86 -10 120 -3 35 -8 79 -10 98 -2 19 -7 64 -10 100 -8
90 -16 170 -20 200 -2 14 -6 54 -10 90 -4 36 -8 76 -10 90 -2 14 -7 50 -10 80
-8 72 -13 100 -40 255 -9 50 -20 115 -25 145 -11 63 -98 488 -130 630 -11 52
-23 106 -26 120 -3 14 -21 90 -40 170 -20 80 -37 152 -39 160 -7 33 -77 299
-95 360 -10 36 -37 128 -59 205 -102 355 -244 745 -364 1000 -228 485 -463
742 -702 769 l-50 5 -180 -182z"/>
</g>
</svg>
